<?xml version="1.0" standalone="no"?><!DOCTYPE svg PUBLIC "-//W3C//DTD SVG 1.1//EN" "http://www.w3.org/Graphics/SVG/1.1/DTD/svg11.dtd"><svg t="1560310863824" class="icon" style="" viewBox="0 0 1024 1024" version="1.1" xmlns="http://www.w3.org/2000/svg" p-id="18809" xmlns:xlink="http://www.w3.org/1999/xlink" width="16" height="16"><defs><style type="text/css"></style></defs><path d="M337.73568 12.27264a191.6416 191.6416 0 0 1 45.40416 5.4784 223.58528 223.58528 0 0 1 42.48064 14.72512 192.06656 192.06656 0 0 1 35.34848 21.04832 127.47776 127.47776 0 0 1 23.99744 23.5776 185.8304 185.8304 0 0 1 30.16192 59.3152 436.13696 436.13696 0 0 1 6.58432 25.30816c-24.27392 9.79968-30.25408 14.91968-46.73024 26.68544-13.74208 12.65152-22.5024 20.71552-33.73056 38.30272-8.45312 10.5728-20.13184 36.8128-24.97024 55.552-2.176 8.2688-9.88672 39.81824-11.35616 58.05056-1.04448 8.97024-4.29056 31.36512-3.24096 63.9488-4.56192 6.0416-7.65952 11.38176-10.37824 17.67424-2.28352 6.71744-3.1744 12.17024-4.21888 20.20864-0.85504 9.856 0.4352 13.89568 3.56864 25.94304 4.06528 12.38016 3.48672 10.9824 9.40544 21.89312 8.57088 12.74368 15.58016 15.1808 21.40672 17.67424 2.53952 9.14432 7.7824 26.91584 7.7824 26.91584s4.864 12.03712 8.7552 21.46304c5.66784 12.12416 11.02848 16.4096 11.02848 16.4096s13.0048 11.77088 24.64256 23.15264c3.36896 4.04992 12.2368 13.99808 12.6464 30.71488 1.29536 13.184 0.9728 10.95168 0.9728 24.4224 0.0512 10.5472-1.00352 11.84768-4.21888 21.04832-3.2 6.78912-5.48864 12.38016-12.6464 20.20352-5.9648 6.73792-13.44 13.62944-25.29792 21.04832-10.42432 6.96832-25.46688 15.60576-48.9728 21.89312-18.3296 4.7104-31.80032 9.56416-53.50912 17.24928-25.25184 10.85952-27.21792 13.14816-41.56416 23.11168-26.21952 20.87424-27.03872 52.35712-26.86464 50.37568s-2.78016 19.01056-3.61984 27.03872c-16.0512-1.024-32.384-2.28864-49.3056-3.82976a2403.26144 2403.26144 0 0 1-64.5376-6.74816 1468.20096 1468.20096 0 0 1-58.37312-7.97696c-17.5104-2.7904-32.10752-5.61152-44.43136-8.43264a58.37312 58.37312 0 0 1-22.70208-8.43264 74.06592 74.06592 0 0 1-12.32384-41.22112 333.73184 333.73184 0 0 1 3.56864-89.216 70.912 70.912 0 0 1 23.3472-47.54432 152.14592 152.14592 0 0 1 45.07648-25.94304 585.8304 585.8304 0 0 1 53.50912-17.24928c17.408-4.59264 33.9456-11.9808 48.9728-21.89312a115.77344 115.77344 0 0 0 25.29792-21.04832 69.05856 69.05856 0 0 0 12.6464-20.20352c2.85184-6.65088 4.28544-13.81888 4.21888-21.04832a344.5248 344.5248 0 0 0-0.9728-24.4224 47.18592 47.18592 0 0 0-12.6464-30.71488 436.51072 436.51072 0 0 0-24.64256-23.15264 51.90656 51.90656 0 0 1-11.02848-16.4096c-2.9184-7.00416-5.8368-14.1568-8.7552-21.46304a843.40736 843.40736 0 0 1-7.7824-26.91584 35.28192 35.28192 0 0 1-11.02336-5.90336 66.01216 66.01216 0 0 1-10.37824-11.77088 70.43072 70.43072 0 0 1-9.40544-21.89312 59.01312 59.01312 0 0 1-3.56864-25.94304 81.92 81.92 0 0 1 4.21888-20.20864 55.90016 55.90016 0 0 1 10.37824-17.67424 421.74976 421.74976 0 0 1 3.24096-63.9488 392.68864 392.68864 0 0 1 11.35616-58.05056 181.0176 181.0176 0 0 1 24.97024-55.552 155.6736 155.6736 0 0 1 33.73056-38.30272 168.15616 168.15616 0 0 1 37.94432-23.15264 157.69088 157.69088 0 0 1 38.91712-11.35104 248.88832 248.88832 0 0 1 37.62176-2.94912v0.13312z m0 0" fill="" p-id="18810"></path><path d="M677.78048 170.28096a191.6416 191.6416 0 0 1 45.40416 5.4784 223.58528 223.58528 0 0 1 42.48064 14.72512 192.06656 192.06656 0 0 1 35.34848 21.04832 127.47776 127.47776 0 0 1 23.99744 23.5776 185.8304 185.8304 0 0 1 30.16192 59.3152 433.79712 433.79712 0 0 1 13.29664 61.84448c2.87232 22.58432 4.28032 45.33248 4.21376 68.10112a32.08704 32.08704 0 0 1 8.76032 10.92608c2.24256 4.83328 3.87072 9.91744 4.864 15.14496 1.39776 7.49056 1.61792 15.15008 0.65024 22.70208a92.76928 92.76928 0 0 1-6.8096 28.18048 58.5984 58.5984 0 0 1-11.6736 16.4096 38.12864 38.12864 0 0 1-14.91968 9.2416 839.552 839.552 0 0 1-7.7824 26.91584c-2.92352 7.296-5.84192 14.43328-9.08288 21.46304a58.43968 58.43968 0 0 1-11.67872 16.4096 820.1472 820.1472 0 0 0-24.64256 21.46816 52.22912 52.22912 0 0 0-12.6464 29.87008 113.00864 113.00864 0 0 0-1.62304 25.6512 77.91104 77.91104 0 0 0 6.8096 25.94816 81.54112 81.54112 0 0 0 18.16064 24.8064 114.50368 114.50368 0 0 0 34.70336 21.04832 362.74176 362.74176 0 0 0 43.13088 15.14496 467.15904 467.15904 0 0 1 45.40416 15.56992 161.49504 161.49504 0 0 1 39.23968 21.89312 70.97856 70.97856 0 0 1 24.32512 35.67104 188.61056 188.61056 0 0 1 5.8368 33.23904c1.29536 13.184 1.9456 26.51648 1.9456 39.98208a232.2432 232.2432 0 0 1-2.9184 37.87776 75.25376 75.25376 0 0 1-8.10496 26.91584 46.53568 46.53568 0 0 1-22.70208 11.776 439.97184 439.97184 0 0 1-45.7216 11.35104c-18.48832 3.6352-38.58944 6.87104-61.29664 9.728a1752.58624 1752.58624 0 0 1-67.45088 7.168 2052.4544 2052.4544 0 0 1-65.5104 4.63872c-20.75648 1.13152-38.91712 1.68448-54.15936 1.68448-15.24224 0-33.08032-0.55296-53.50912-1.68448-20.43392-1.13664-41.1904-2.6624-62.91456-4.63872a2403.26144 2403.26144 0 0 1-64.5376-6.74816 1468.20096 1468.20096 0 0 1-58.37312-7.97696c-17.5104-2.7904-32.10752-5.61152-44.43136-8.43264a58.37312 58.37312 0 0 1-22.70208-8.43264 74.06592 74.06592 0 0 1-12.32384-41.22112 333.73184 333.73184 0 0 1 3.56864-89.216 70.912 70.912 0 0 1 23.3472-47.54432 152.14592 152.14592 0 0 1 45.07648-25.94304 585.8304 585.8304 0 0 1 53.50912-17.24928c17.408-4.59264 33.9456-11.9808 48.9728-21.89312a115.77344 115.77344 0 0 0 25.29792-21.04832 69.05856 69.05856 0 0 0 12.6464-20.20352c2.85184-6.65088 4.28544-13.81888 4.21888-21.04832a344.5248 344.5248 0 0 0-0.9728-24.4224 47.18592 47.18592 0 0 0-12.6464-30.71488 436.51072 436.51072 0 0 0-24.64256-23.15264 51.90656 51.90656 0 0 1-11.02848-16.4096c-2.9184-7.00416-5.8368-14.1568-8.7552-21.46304a843.40736 843.40736 0 0 1-7.7824-26.91584 35.28192 35.28192 0 0 1-11.02336-5.90336 66.01216 66.01216 0 0 1-10.37824-11.77088 70.43072 70.43072 0 0 1-9.40544-21.89312 59.01312 59.01312 0 0 1-3.56864-25.94304 81.92 81.92 0 0 1 4.21888-20.20864 55.90016 55.90016 0 0 1 10.37824-17.67424 421.74976 421.74976 0 0 1 3.24096-63.9488 392.68864 392.68864 0 0 1 11.35616-58.05056 181.0176 181.0176 0 0 1 24.97024-55.552 155.6736 155.6736 0 0 1 33.73056-38.30272 168.15616 168.15616 0 0 1 37.94432-23.15264 157.69088 157.69088 0 0 1 38.91712-11.35104 248.88832 248.88832 0 0 1 37.62176-2.94912v0.14336z m0 0" fill="" p-id="18811"></path></svg>